<?xml version="1.0" encoding="UTF-8"?>
<svg width="24px" height="24px" viewBox="0 0 24 24" version="1.1" xmlns="http://www.w3.org/2000/svg" xmlns:xlink="http://www.w3.org/1999/xlink">
    <title>icon-引用</title>
    <g id="markdown编辑器" stroke="none" stroke-width="1" fill="none" fill-rule="evenodd">
        <g id="mark-down编辑器" transform="translate(-345.000000, -200.000000)" fill="#333333">
            <g id="方案一" transform="translate(160.000000, 192.000000)">
                <g id="icon" transform="translate(16.000000, 8.000000)">
                    <g id="icon-引用" transform="translate(169.000000, 0.000000)">
                        <g id="编组" transform="translate(7.500000, 8.000000)">
                            <path d="M3.25089612,0.0671420871 C1.32004763,1.30715316 0.247378813,2.75043074 0.0328819713,4.39695688 C-0.301041027,6.96021683 1.99122683,8.21486067 3.15269479,7.08757089 C4.31416274,5.9602811 3.61793322,4.52943894 2.77691443,4.13832584 C1.93589564,3.74718711 1.42158217,3.88341261 1.51129665,3.3607405 C1.60101114,2.83809402 2.79752902,1.38897051 3.84871918,0.714099146 C3.91846008,0.654793745 3.94499751,0.539721267 3.87784626,0.452416947 C3.83366848,0.395008909 3.7470308,0.282410694 3.61793322,0.114614612 C3.50504015,-0.032115617 3.39689048,-0.0266235215 3.25089612,0.0671420871 Z" id="路径"></path>
                            <path d="M8.33418693,0.0671420871 C6.40336408,1.30715316 5.33068757,2.75043074 5.11618304,4.39695688 C4.78227286,6.96021683 7.07454328,8.21486067 8.23601124,7.08757089 C9.39747919,5.9602811 8.70124967,4.52943894 7.86023088,4.13832584 C7.01921209,3.74718711 6.50487298,3.88341261 6.5946131,3.3607405 C6.68432759,2.83809402 7.88084547,1.38897051 8.93203563,0.714099146 C9.00177653,0.654793745 9.02831396,0.539721267 8.96113707,0.452416947 C8.91698493,0.395008909 8.83034725,0.282410694 8.70124967,0.114614612 C8.5883566,-0.032115617 8.48020693,-0.0266235215 8.33418693,0.0671420871 Z" id="路径"></path>
                        </g>
                    </g>
                </g>
            </g>
        </g>
    </g>
</svg>