<?xml version="1.0" encoding="UTF-8"?>
<svg width="24px" height="24px" viewBox="0 0 24 24" version="1.1" xmlns="http://www.w3.org/2000/svg" xmlns:xlink="http://www.w3.org/1999/xlink">
    <title>icon-代码块{}</title>
    <g id="markdown编辑器" stroke="none" stroke-width="1" fill="none" fill-rule="evenodd">
        <g id="mark-down编辑器" transform="translate(-491.000000, -200.000000)" fill="#333333" fill-rule="nonzero">
            <g id="方案一" transform="translate(160.000000, 192.000000)">
                <g id="icon" transform="translate(16.000000, 8.000000)">
                    <g id="icon-代码块{}" transform="translate(315.000000, 0.000000)">
                        <g id="braces-line" transform="translate(5.000000, 5.000000)">
                            <rect id="矩形" opacity="0" x="0" y="0" width="13.9591042" height="13.9591042"></rect>
                            <path d="M3,10.4693281 L3,8.31729503 C3,7.83545751 2.66422137,7.44485102 2.25000781,7.44485102 L2,7.44485102 L2,6.51425316 L2.25000781,6.51425316 C2.66422137,6.51425316 3,6.12364668 3,5.64180915 L3,3.48977605 C3,2.526101 3.67158069,1.74488802 4.5,1.74488802 L5,1.74488802 L5,2.90814216 L4.5,2.90814216 C4.36739853,2.90814216 4.24022058,2.96942127 4.14645166,3.07849878 C4.05268274,3.18757629 4,3.33551715 4,3.48977605 L4,5.8744518 C4.0001134,6.37671794 3.72308406,6.82234415 3.31300391,6.97955209 C3.72308406,7.13676004 4.0001134,7.58238624 4,8.08465239 L4,10.4693281 C4,10.623587 4.05268274,10.7715279 4.14645166,10.8806054 C4.24022058,10.9896829 4.36739853,11.050962 4.5,11.050962 L5,11.050962 L5,12.2142162 L4.5,12.2142162 C3.67158069,12.2142162 3,11.4330032 3,10.4693281 Z M11.1428199,10.4693281 C11.1428199,11.4330032 10.4712392,12.2142162 9.64281986,12.2142162 L9.14281986,12.2142162 L9.14281986,11.050962 L9.64281986,11.050962 C9.91895658,11.050962 10.1428199,10.7905557 10.1428199,10.4693281 L10.1428199,8.08465239 C10.1427065,7.58238624 10.4197358,7.13676004 10.829816,6.97955209 C10.4197358,6.82234415 10.1427065,6.37671794 10.1428199,5.8744518 L10.1428199,3.48977605 C10.1428199,3.16854852 9.91895658,2.90814216 9.64281986,2.90814216 L9.14281986,2.90814216 L9.14281986,1.74488802 L9.64281986,1.74488802 C10.4712392,1.74488802 11.1428199,2.526101 11.1428199,3.48977605 L11.1428199,5.64180915 C11.1428199,6.12364668 11.4785985,6.51425316 11.8928121,6.51425316 L12.1428199,6.51425316 L12.1428199,7.44485102 L11.8928121,7.44485102 C11.4785985,7.44485102 11.1428199,7.83545751 11.1428199,8.31729503 L11.1428199,10.4693281 Z" id="形状"></path>
                        </g>
                    </g>
                </g>
            </g>
        </g>
    </g>
</svg>