<?xml version="1.0" encoding="UTF-8"?>
<svg width="24px" height="24px" viewBox="0 0 24 24" version="1.1" xmlns="http://www.w3.org/2000/svg" xmlns:xlink="http://www.w3.org/1999/xlink">
    <title>icon-删除</title>
    <g id="markdown编辑器" stroke="none" stroke-width="1" fill="none" fill-rule="evenodd">
        <g id="mark-down编辑器" transform="translate(-272.000000, -200.000000)" fill="#333333" fill-rule="nonzero">
            <g id="方案一" transform="translate(160.000000, 192.000000)">
                <g id="icon" transform="translate(16.000000, 8.000000)">
                    <g id="icon-删除" transform="translate(96.000000, 0.000000)">
                        <g id="strikethrough-outlined" transform="translate(5.000000, 5.000000)">
                            <rect id="矩形" opacity="0" x="0" y="0" width="14" height="14"></rect>
                            <path d="M13.015625,6.48046875 L7.79160156,6.48046875 C7.65488281,6.453125 7.51132812,6.42578125 7.35957031,6.3984375 C7.1421875,6.35878906 7.05605469,6.34238281 6.93847656,6.31914063 C6.23710937,6.18242188 5.81464844,6.04570313 5.47832031,5.8515625 C4.9984375,5.57128906 4.76464844,5.19121094 4.76464844,4.68808594 C4.76464844,4.18222656 4.97246094,3.7625 5.36621094,3.47128906 C5.75449219,3.18417969 6.30683594,3.03242188 6.96308594,3.03242188 C7.71230469,3.03242188 8.290625,3.22929688 8.68300781,3.61757813 C8.88261719,3.81445313 9.02890625,4.05644531 9.11777344,4.33671875 C9.13554687,4.39277344 9.15605469,4.4734375 9.1765625,4.58007813 C9.18886719,4.64570313 9.24765625,4.6921875 9.31191406,4.6921875 L10.3072266,4.6921875 C10.3837891,4.6921875 10.4453125,4.62929688 10.4453125,4.55410156 L10.4453125,4.54042969 C10.4357422,4.44746094 10.4275391,4.375 10.4179687,4.32167969 C10.3181641,3.72695313 10.0351562,3.2046875 9.60175781,2.81367187 C8.99472656,2.25996094 8.10195312,1.96875 7.021875,1.96875 C6.03339844,1.96875 5.14335937,2.21621094 4.51582031,2.66464844 C4.16582031,2.91621094 3.89511719,3.22792969 3.71464844,3.59023438 C3.53007812,3.96074219 3.43710937,4.38867188 3.43710937,4.86035156 C3.43710937,5.26367188 3.51503906,5.60546875 3.67363281,5.90625 C3.78710937,6.12089844 3.94160156,6.30957031 4.13984375,6.48046875 L0.984375,6.48046875 C0.92421875,6.48046875 0.875,6.5296875 0.875,6.58984375 L0.875,7.41015625 C0.875,7.4703125 0.92421875,7.51953125 0.984375,7.51953125 L6.90703125,7.51953125 C6.93574219,7.525 6.96035156,7.53046875 6.98769531,7.5359375 C7.41015625,7.62070313 7.66445312,7.678125 7.89824219,7.74375 C8.21269531,7.83261719 8.45332031,7.92558594 8.65292969,8.03769531 C9.14238281,8.31386719 9.38164062,8.71035156 9.38164062,9.25449219 C9.38164062,9.73710938 9.16972656,10.1677734 8.78554687,10.4685547 C8.36855469,10.7953125 7.75195312,10.9662109 7.00136719,10.9662109 C6.40390625,10.9662109 5.89804687,10.85 5.49472656,10.6244141 C5.096875,10.4015625 4.8234375,10.0802734 4.67851562,9.67421875 C4.66757812,9.64414063 4.65527344,9.603125 4.64160156,9.55117188 C4.62519531,9.49101563 4.56914062,9.44863281 4.50898437,9.44863281 L3.41933594,9.44863281 C3.34277344,9.44863281 3.28125,9.51152344 3.28125,9.58671875 L3.28125,9.60039063 C3.28398437,9.63183594 3.28671875,9.6578125 3.28945312,9.67832031 C3.37832031,10.3455078 3.70371094,10.8923828 4.25605469,11.3025391 C4.9,11.7783203 5.80644531,12.0298828 6.87832031,12.0298828 C8.02949219,12.0298828 8.99472656,11.7591797 9.67011719,11.2464844 C10.0119141,10.9880859 10.2744141,10.6695313 10.4507812,10.303125 C10.6285156,9.93261719 10.7201172,9.51152344 10.7201172,9.05214844 C10.7201172,8.61738281 10.6408203,8.25371094 10.4767578,7.93925781 C10.3974609,7.78613281 10.2976563,7.6453125 10.1787109,7.51816406 L13.015625,7.51816406 C13.0757813,7.51816406 13.125,7.46894531 13.125,7.40878906 L13.125,6.58847656 C13.125,6.5296875 13.0757813,6.48046875 13.015625,6.48046875 L13.015625,6.48046875 Z" id="路径"></path>
                        </g>
                    </g>
                </g>
            </g>
        </g>
    </g>
</svg>