<?xml version="1.0" encoding="UTF-8"?>
<svg width="24px" height="24px" viewBox="0 0 24 24" version="1.1" xmlns="http://www.w3.org/2000/svg" xmlns:xlink="http://www.w3.org/1999/xlink">
    <title>icon-斜体</title>
    <g id="markdown编辑器" stroke="none" stroke-width="1" fill="none" fill-rule="evenodd">
        <g id="mark-down编辑器" transform="translate(-240.000000, -200.000000)" fill="#333333" fill-rule="nonzero">
            <g id="方案一" transform="translate(160.000000, 192.000000)">
                <g id="icon" transform="translate(16.000000, 8.000000)">
                    <g id="icon-斜体" transform="translate(64.000000, 0.000000)">
                        <g id="italic" transform="translate(5.000000, 5.000000)">
                            <rect id="矩形" opacity="0" x="0" y="0" width="14" height="14"></rect>
                            <path d="M10.9101562,2.1875 L5.00390625,2.1875 C4.94375,2.1875 4.89453125,2.23671875 4.89453125,2.296875 L4.89453125,3.171875 C4.89453125,3.23203125 4.94375,3.28125 5.00390625,3.28125 L7.48125,3.28125 L5.3484375,10.71875 L3.13085938,10.71875 C3.07070313,10.71875 3.02148438,10.7679687 3.02148438,10.828125 L3.02148438,11.703125 C3.02148438,11.7632813 3.07070313,11.8125 3.13085938,11.8125 L9.03710938,11.8125 C9.09726562,11.8125 9.14648438,11.7632813 9.14648438,11.703125 L9.14648438,10.828125 C9.14648438,10.7679687 9.09726562,10.71875 9.03710938,10.71875 L6.4859375,10.71875 L8.61875,3.28125 L10.9101562,3.28125 C10.9703125,3.28125 11.0195312,3.23203125 11.0195312,3.171875 L11.0195312,2.296875 C11.0195312,2.23671875 10.9703125,2.1875 10.9101562,2.1875 Z" id="路径"></path>
                        </g>
                    </g>
                </g>
            </g>
        </g>
    </g>
</svg>