<?xml version="1.0" encoding="UTF-8"?>
<svg width="24px" height="24px" viewBox="0 0 24 24" version="1.1" xmlns="http://www.w3.org/2000/svg" xmlns:xlink="http://www.w3.org/1999/xlink">
    <title>icon-全屏（进入）@1x</title>
    <g id="markdown编辑器" stroke="none" stroke-width="1" fill="none" fill-rule="evenodd">
        <g id="mark-down编辑器" transform="translate(-888.000000, -90.000000)" fill="#333333" fill-rule="nonzero">
            <g id="方案一" transform="translate(274.000000, 82.000000)">
                <g id="icon" transform="translate(16.000000, 8.000000)">
                    <g id="icon-全屏（进入）" transform="translate(598.000000, 0.000000)">
                        <g id="expend-outlined" transform="translate(5.000000, 5.000000)">
                            <rect id="矩形" opacity="0" x="0" y="0" width="14" height="14"></rect>
                            <path d="M4.79481132,1.5 L1.91509434,1.5 C1.68549528,1.5 1.5,1.68549528 1.5,1.91509434 L1.5,4.82075472 C1.5,4.93490566 1.59339623,5.02830189 1.70754717,5.02830189 L2.33018868,5.02830189 C2.44433962,5.02830189 2.53773585,4.93490566 2.53773585,4.82075472 L2.53773585,2.53773585 L4.79481132,2.53773585 C4.90896226,2.53773585 5.00235849,2.44433962 5.00235849,2.33018868 L5.00235849,1.70754717 C5.00235849,1.59339623 4.90896226,1.5 4.79481132,1.5 Z M12.2924528,8.97169811 L11.6698113,8.97169811 C11.5556604,8.97169811 11.4622642,9.06509434 11.4622642,9.17924528 L11.4622642,11.4622642 L9.20518868,11.4622642 C9.09103774,11.4622642 8.99764151,11.5556604 8.99764151,11.6698113 L8.99764151,12.2924528 C8.99764151,12.4066038 9.09103774,12.5 9.20518868,12.5 L12.0849057,12.5 C12.3145047,12.5 12.5,12.3145047 12.5,12.0849057 L12.5,9.17924528 C12.5,9.06509434 12.4066038,8.97169811 12.2924528,8.97169811 Z M4.79481132,11.4622642 L2.53773585,11.4622642 L2.53773585,9.17924528 C2.53773585,9.06509434 2.44433962,8.97169811 2.33018868,8.97169811 L1.70754717,8.97169811 C1.59339623,8.97169811 1.5,9.06509434 1.5,9.17924528 L1.5,12.0849057 C1.5,12.3145047 1.68549528,12.5 1.91509434,12.5 L4.79481132,12.5 C4.90896226,12.5 5.00235849,12.4066038 5.00235849,12.2924528 L5.00235849,11.6698113 C5.00235849,11.5556604 4.90896226,11.4622642 4.79481132,11.4622642 Z M12.0849057,1.5 L9.20518868,1.5 C9.09103774,1.5 8.99764151,1.59339623 8.99764151,1.70754717 L8.99764151,2.33018868 C8.99764151,2.44433962 9.09103774,2.53773585 9.20518868,2.53773585 L11.4622642,2.53773585 L11.4622642,4.82075472 C11.4622642,4.93490566 11.5556604,5.02830189 11.6698113,5.02830189 L12.2924528,5.02830189 C12.4066038,5.02830189 12.5,4.93490566 12.5,4.82075472 L12.5,1.91509434 C12.5,1.68549528 12.3145047,1.5 12.0849057,1.5 Z" id="形状"></path>
                        </g>
                    </g>
                </g>
            </g>
        </g>
    </g>
</svg>