<?xml version="1.0" encoding="UTF-8"?>
<svg width="24px" height="24px" viewBox="0 0 24 24" version="1.1" xmlns="http://www.w3.org/2000/svg" xmlns:xlink="http://www.w3.org/1999/xlink">
    <title>icon-全屏（退出）@1x</title>
    <g id="markdown编辑器" stroke="none" stroke-width="1" fill="none" fill-rule="evenodd">
        <g id="mark-down编辑器" transform="translate(-889.000000, -493.000000)" fill="#333333" fill-rule="nonzero">
            <g id="方案二" transform="translate(274.000000, 485.000000)">
                <g id="icon" transform="translate(16.000000, 8.000000)">
                    <g id="icon-全屏（退出）" transform="translate(599.000000, 0.000000)">
                        <g id="compress-outlined" transform="translate(5.000000, 5.000000)">
                            <rect id="矩形" opacity="0" x="0" y="0" width="14" height="14"></rect>
                            <path d="M4.58726415,8.97169811 L1.70754717,8.97169811 C1.59339623,8.97169811 1.5,9.06509434 1.5,9.17924528 L1.5,9.80188679 C1.5,9.91603774 1.59339623,10.009434 1.70754717,10.009434 L3.96462264,10.009434 L3.96462264,12.2924528 C3.96462264,12.4066038 4.05801887,12.5 4.17216981,12.5 L4.79481132,12.5 C4.90896226,12.5 5.00235849,12.4066038 5.00235849,12.2924528 L5.00235849,9.38679245 C5.00235849,9.1571934 4.81686321,8.97169811 4.58726415,8.97169811 Z M4.79481132,1.5 L4.17216981,1.5 C4.05801887,1.5 3.96462264,1.59339623 3.96462264,1.70754717 L3.96462264,3.99056604 L1.70754717,3.99056604 C1.59339623,3.99056604 1.5,4.08396226 1.5,4.19811321 L1.5,4.82075472 C1.5,4.93490566 1.59339623,5.02830189 1.70754717,5.02830189 L4.58726415,5.02830189 C4.81686321,5.02830189 5.00235849,4.8428066 5.00235849,4.61320755 L5.00235849,1.70754717 C5.00235849,1.59339623 4.90896226,1.5 4.79481132,1.5 Z M12.2924528,8.97169811 L9.41273585,8.97169811 C9.18313679,8.97169811 8.99764151,9.1571934 8.99764151,9.38679245 L8.99764151,12.2924528 C8.99764151,12.4066038 9.09103774,12.5 9.20518868,12.5 L9.82783019,12.5 C9.94198113,12.5 10.0353774,12.4066038 10.0353774,12.2924528 L10.0353774,10.009434 L12.2924528,10.009434 C12.4066038,10.009434 12.5,9.91603774 12.5,9.80188679 L12.5,9.17924528 C12.5,9.06509434 12.4066038,8.97169811 12.2924528,8.97169811 Z M12.2924528,3.99056604 L10.0353774,3.99056604 L10.0353774,1.70754717 C10.0353774,1.59339623 9.94198113,1.5 9.82783019,1.5 L9.20518868,1.5 C9.09103774,1.5 8.99764151,1.59339623 8.99764151,1.70754717 L8.99764151,4.61320755 C8.99764151,4.8428066 9.18313679,5.02830189 9.41273585,5.02830189 L12.2924528,5.02830189 C12.4066038,5.02830189 12.5,4.93490566 12.5,4.82075472 L12.5,4.19811321 C12.5,4.08396226 12.4066038,3.99056604 12.2924528,3.99056604 Z" id="形状"></path>
                        </g>
                    </g>
                </g>
            </g>
        </g>
    </g>
</svg>