<?xml version="1.0" encoding="UTF-8"?>
<svg width="24px" height="24px" viewBox="0 0 24 24" version="1.1" xmlns="http://www.w3.org/2000/svg" xmlns:xlink="http://www.w3.org/1999/xlink">
    <title>icon-标题</title>
    <g id="markdown编辑器" stroke="none" stroke-width="1" fill="none" fill-rule="evenodd">
        <g id="mark-down编辑器" transform="translate(-768.000000, -200.000000)" fill="#333333" fill-rule="nonzero">
            <g id="方案二" transform="translate(752.000000, 192.000000)">
                <g id="icon" transform="translate(16.000000, 8.000000)">
                    <g id="italic" transform="translate(5.000000, 5.000000)">
                        <rect id="矩形" opacity="0" x="0" y="0" width="14" height="14"></rect>
                        <path d="M4.52398438,2.33125 C4.58448438,2.33125 4.63398438,2.41160714 4.63398438,2.50982143 L4.63398438,6.71825 L9.53398438,6.71825 L9.53398438,2.50982143 C9.53398438,2.43125 9.56566438,2.36410714 9.60931238,2.34039286 L9.64398438,2.33125 L10.5239844,2.33125 C10.5844844,2.33125 10.6339844,2.41160714 10.6339844,2.50982143 L10.6339844,12.1526786 C10.6339844,12.2508929 10.5844844,12.33125 10.5239844,12.33125 L9.64398438,12.33125 C9.58348438,12.33125 9.53398438,12.2508929 9.53398438,12.1526786 L9.53398438,7.81825 L4.63398438,7.81825 L4.63398438,12.1526786 C4.63398438,12.23125 4.60230438,12.2983929 4.55865638,12.3221071 L4.52398438,12.33125 L3.64398438,12.33125 C3.58348438,12.33125 3.53398438,12.2508929 3.53398438,12.1526786 L3.53398438,2.50982143 C3.53398438,2.41160714 3.58348438,2.33125 3.64398438,2.33125 Z" id="形状结合"></path>
                    </g>
                </g>
            </g>
        </g>
    </g>
</svg>