<?xml version="1.0" encoding="UTF-8"?>
<svg width="24px" height="24px" viewBox="0 0 24 24" version="1.1" xmlns="http://www.w3.org/2000/svg" xmlns:xlink="http://www.w3.org/1999/xlink">
    <title>icon-图片</title>
    <g id="markdown编辑器" stroke="none" stroke-width="1" fill="none" fill-rule="evenodd">
        <g id="mark-down编辑器" transform="translate(-418.000000, -200.000000)" fill="#333333" fill-rule="nonzero">
            <g id="方案一" transform="translate(160.000000, 192.000000)">
                <g id="icon" transform="translate(16.000000, 8.000000)">
                    <g id="icon-图片" transform="translate(242.000000, 0.000000)">
                        <g id="image" transform="translate(5.000000, 5.000000)">
                            <rect id="矩形" opacity="0" x="0" y="0" width="14" height="14"></rect>
                            <path d="M12.6875,2.1875 L1.3125,2.1875 C1.07050781,2.1875 0.875,2.38300781 0.875,2.625 L0.875,11.375 C0.875,11.6169922 1.07050781,11.8125 1.3125,11.8125 L12.6875,11.8125 C12.9294922,11.8125 13.125,11.6169922 13.125,11.375 L13.125,2.625 C13.125,2.38300781 12.9294922,2.1875 12.6875,2.1875 Z M12.140625,10.828125 L1.859375,10.828125 L1.859375,10.2826172 L3.75292969,8.03632812 L5.80507812,10.4699219 L8.99746094,6.68554688 L12.140625,10.4125 L12.140625,10.828125 Z M12.140625,9.05351562 L9.08085938,5.425 C9.03710938,5.37304688 8.9578125,5.37304688 8.9140625,5.425 L5.80507812,9.1109375 L3.83632813,6.77714844 C3.79257813,6.72519531 3.71328125,6.72519531 3.66953125,6.77714844 L1.859375,8.92363281 L1.859375,3.171875 L12.140625,3.171875 L12.140625,9.05351562 Z M4.15625,6.234375 C4.82070313,6.234375 5.359375,5.69570313 5.359375,5.03125 C5.359375,4.36679687 4.82070313,3.828125 4.15625,3.828125 C3.49179687,3.828125 2.953125,4.36679687 2.953125,5.03125 C2.953125,5.69570313 3.49179688,6.234375 4.15625,6.234375 Z M4.15625,4.6484375 C4.36816406,4.6484375 4.5390625,4.81933594 4.5390625,5.03125 C4.5390625,5.24316406 4.36816406,5.4140625 4.15625,5.4140625 C3.94433594,5.4140625 3.7734375,5.24316406 3.7734375,5.03125 C3.7734375,4.81933594 3.94433594,4.6484375 4.15625,4.6484375 Z" id="形状"></path>
                        </g>
                    </g>
                </g>
            </g>
        </g>
    </g>
</svg>