<?xml version="1.0" encoding="UTF-8"?>
<svg width="24px" height="24px" viewBox="0 0 24 24" version="1.1" xmlns="http://www.w3.org/2000/svg" xmlns:xlink="http://www.w3.org/1999/xlink">
    <title>icon-行内代码</title>
    <g id="markdown编辑器" stroke="none" stroke-width="1" fill="none" fill-rule="evenodd">
        <g id="mark-down编辑器" transform="translate(-459.000000, -200.000000)" fill="#333333" fill-rule="nonzero">
            <g id="方案一" transform="translate(160.000000, 192.000000)">
                <g id="icon" transform="translate(16.000000, 8.000000)">
                    <g id="icon-行内代码" transform="translate(283.000000, 0.000000)">
                        <g id="code" transform="translate(5.000000, 5.000000)">
                            <rect id="矩形" opacity="0" x="0" y="0" width="14" height="14"></rect>
                            <path d="M5.99375,11.6087891 L9.03847656,2.7671875 C9.04121094,2.76035156 9.04257812,2.75214844 9.04394531,2.7453125 L5.99375,11.6087891 Z" id="路径" opacity="0.224"></path>
                            <path d="M9.03984375,2.30644531 L8.11699219,2.30644531 C8.07050781,2.30644531 8.028125,2.33652344 8.01308594,2.38027344 L4.84941406,11.5664062 C4.8453125,11.5773437 4.84394531,11.5896484 4.84394531,11.6019531 C4.84394531,11.6621094 4.89316406,11.7113281 4.95332031,11.7113281 L5.88027344,11.7113281 C5.92675781,11.7113281 5.96914062,11.68125 5.98417969,11.6375 L5.99375,11.6087891 L9.04394531,2.7453125 L9.14511719,2.45273437 C9.14921875,2.44179687 9.15058594,2.42949219 9.15058594,2.4171875 C9.14921875,2.35566406 9.10136719,2.30644531 9.03984375,2.30644531 L9.03984375,2.30644531 Z M13.0511719,6.86464844 C13.0402344,6.85097656 13.0279297,6.83867187 13.0142578,6.82773437 L10.0201172,4.48574219 C9.97226563,4.44882812 9.90390625,4.45703125 9.86699219,4.50488281 C9.85195312,4.52402344 9.84375,4.54726562 9.84375,4.571875 L9.84375,5.68339844 C9.84375,5.71757812 9.85878906,5.74902344 9.88613281,5.76953125 L11.4583984,7 L9.88613281,8.23046875 C9.86015625,8.25097656 9.84375,8.28242187 9.84375,8.31660156 L9.84375,9.428125 C9.84375,9.48828125 9.89296875,9.5375 9.953125,9.5375 C9.97773437,9.5375 10.0009766,9.52929687 10.0201172,9.51425781 L13.0142578,7.17226562 C13.1085938,7.0984375 13.1263672,6.96035156 13.0511719,6.86464844 L13.0511719,6.86464844 Z M3.97988281,4.48574219 L0.985742187,6.82773437 C0.972070312,6.83867187 0.959765625,6.85097656 0.948828125,6.86464844 C0.875,6.96035156 0.89140625,7.09707031 0.985742187,7.17226562 L3.97988281,9.51425781 C3.99902344,9.52929687 4.02226562,9.5375 4.046875,9.5375 C4.10703125,9.5375 4.15625,9.48828125 4.15625,9.428125 L4.15625,8.31660156 C4.15625,8.28242187 4.14121094,8.25097656 4.11386719,8.23046875 L2.54160156,7 L4.11386719,5.76953125 C4.13984375,5.74902344 4.15625,5.71757812 4.15625,5.68339844 L4.15625,4.571875 C4.15625,4.54726562 4.14804687,4.52402344 4.13300781,4.50488281 C4.09609375,4.45703125 4.02773437,4.44882812 3.97988281,4.48574219 Z" id="形状"></path>
                        </g>
                    </g>
                </g>
            </g>
        </g>
    </g>
</svg>