<?xml version="1.0" encoding="UTF-8"?>
<svg width="24px" height="24px" viewBox="0 0 24 24" version="1.1" xmlns="http://www.w3.org/2000/svg" xmlns:xlink="http://www.w3.org/1999/xlink">
    <title>icon-行内公示</title>
    <g id="markdown编辑器" stroke="none" stroke-width="1" fill="none" fill-rule="evenodd">
        <g id="mark-down编辑器" transform="translate(-523.000000, -200.000000)" fill="#333333">
            <g id="方案一" transform="translate(160.000000, 192.000000)">
                <g id="icon" transform="translate(16.000000, 8.000000)">
                    <g id="icon-行内公示" transform="translate(347.000000, 0.000000)">
                        <g id="code-library" transform="translate(5.000000, 5.000000)">
                            <rect id="矩形" x="2" y="3" width="10" height="1" rx="0.100000001"></rect>
                            <path d="M4,4 L5,4 L5,10.9 C5,10.9552285 4.95522847,11 4.9,11 L4.1,11 C4.04477153,11 4,10.9552285 4,10.9 L4,4 L4,4 Z" id="矩形备份-8"></path>
                            <path d="M9,4 L10,4 L10,11 L9.5,11 C9.22385763,11 9,10.7761424 9,10.5 L9,4 L9,4 Z" id="矩形备份-9"></path>
                            <path d="M9,10 L12.4,10 C12.4552285,10 12.5,10.0447715 12.5,10.1 L12.5,10.9 C12.5,10.9552285 12.4552285,11 12.4,11 L9.5,11 C9.22385763,11 9,10.7761424 9,10.5 L9,10 L9,10 Z" id="矩形备份-10"></path>
                        </g>
                    </g>
                </g>
            </g>
        </g>
    </g>
</svg>