<?xml version="1.0" encoding="UTF-8"?>
<svg width="24px" height="24px" viewBox="0 0 24 24" version="1.1" xmlns="http://www.w3.org/2000/svg" xmlns:xlink="http://www.w3.org/1999/xlink">
    <title>icon-链接</title>
    <g id="markdown编辑器" stroke="none" stroke-width="1" fill="none" fill-rule="evenodd">
        <g id="mark-down编辑器" transform="translate(-978.000000, -200.000000)" fill="#333333" fill-rule="nonzero">
            <g id="方案二" transform="translate(752.000000, 192.000000)">
                <g id="icon" transform="translate(16.000000, 8.000000)">
                    <g id="icon-链接" transform="translate(210.000000, 0.000000)">
                        <g id="link" transform="translate(5.000000, 5.000000)">
                            <rect id="矩形" opacity="0" x="0" y="0" width="14" height="14"></rect>
                            <path d="M7.84765625,9.09726563 C7.80527344,9.05488281 7.73554687,9.05488281 7.69316406,9.09726563 L6.10449219,10.6859375 C5.36894531,11.4214844 4.12753906,11.4994141 3.31542969,10.6859375 C2.50195313,9.87246094 2.57988281,8.63242188 3.31542969,7.896875 L4.90410156,6.30820313 C4.94648438,6.26582031 4.94648438,6.19609375 4.90410156,6.15371094 L4.35996094,5.60957031 C4.31757812,5.5671875 4.24785156,5.5671875 4.20546875,5.60957031 L2.61679688,7.19824219 C1.46015625,8.35488281 1.46015625,10.2265625 2.61679688,11.3818359 C3.7734375,12.5371094 5.64511719,12.5384766 6.80039062,11.3818359 L8.3890625,9.79316406 C8.43144531,9.75078125 8.43144531,9.68105469 8.3890625,9.63867188 L7.84765625,9.09726563 Z M11.3832031,2.61679687 C10.2265625,1.46015625 8.35488281,1.46015625 7.19960937,2.61679687 L5.60957031,4.20546875 C5.5671875,4.24785156 5.5671875,4.31757813 5.60957031,4.35996094 L6.15234375,4.90273438 C6.19472656,4.94511719 6.26445313,4.94511719 6.30683594,4.90273438 L7.89550781,3.3140625 C8.63105469,2.57851563 9.87246094,2.50058594 10.6845703,3.3140625 C11.4980469,4.12753906 11.4201172,5.36757813 10.6845703,6.103125 L9.09589844,7.69179688 C9.05351562,7.73417969 9.05351562,7.80390625 9.09589844,7.84628906 L9.64003906,8.39042969 C9.68242187,8.4328125 9.75214844,8.4328125 9.79453125,8.39042969 L11.3832031,6.80175781 C12.5384766,5.64511719 12.5384766,3.7734375 11.3832031,2.61679687 L11.3832031,2.61679687 Z M8.34121094,5.09003906 C8.29882812,5.04765625 8.22910156,5.04765625 8.18671875,5.09003906 L5.09003906,8.18535156 C5.04765625,8.22773438 5.04765625,8.29746094 5.09003906,8.33984375 L5.63144531,8.88125 C5.67382813,8.92363281 5.74355469,8.92363281 5.7859375,8.88125 L8.88125,5.7859375 C8.92363281,5.74355469 8.92363281,5.67382813 8.88125,5.63144531 L8.34121094,5.09003906 Z" id="形状"></path>
                        </g>
                    </g>
                </g>
            </g>
        </g>
    </g>
</svg>