<?xml version="1.0" encoding="UTF-8"?>
<svg width="24px" height="24px" viewBox="0 0 24 24" version="1.1" xmlns="http://www.w3.org/2000/svg" xmlns:xlink="http://www.w3.org/1999/xlink">
    <title>icon-公示块</title>
    <g id="markdown编辑器" stroke="none" stroke-width="1" fill="none" fill-rule="evenodd">
        <g id="mark-down编辑器" transform="translate(-555.000000, -200.000000)" fill="#333333">
            <g id="方案一" transform="translate(160.000000, 192.000000)">
                <g id="icon" transform="translate(16.000000, 8.000000)">
                    <g id="icon-公示块" transform="translate(379.000000, 0.000000)">
                        <g id="编组-2" transform="translate(5.000000, 5.000000)">
                            <path d="M10.7003992,2 C10.7297393,2 10.7561282,2.01263571 10.774421,2.03276226 C10.8079259,2.05468192 10.8349761,2.08691449 10.8505533,2.12607008 L11.7423248,4.36767509 C11.76274,4.4189918 11.7376894,4.47714199 11.6863727,4.49755718 C11.6746104,4.50223653 11.6620666,4.50464005 11.6494077,4.50464005 L10.8646533,4.50464005 C10.8236945,4.50464005 10.7868766,4.47966278 10.7717362,4.44160502 L10.197,2.999 L3.708,2.999 L7.57508353,6.8640411 C7.63765673,6.92643563 7.65019644,7.01995965 7.61273209,7.09487554 L7.57508353,7.14679628 L7.00944186,7.712088 L3.725,10.994 L10.2,10.994 L10.7717362,9.55839498 C10.7818298,9.53302314 10.8015578,9.51346485 10.8257243,9.50324508 L10.8646533,9.49535995 L11.6494077,9.49535995 C11.6620666,9.49535995 11.6746104,9.49776347 11.6863727,9.50244282 C11.7376894,9.52285801 11.76274,9.5810082 11.7423248,9.63232491 L10.8505533,11.8739299 C10.8314822,11.9218681 10.795214,11.9594293 10.7505106,11.9806694 C10.7452531,11.9833945 10.7400677,11.9858178 10.7346647,11.9877884 C10.7128187,11.9955615 10.6891368,12 10.664719,12 L9.80039916,12 L2.50039917,11.9938133 C2.38994222,11.9938133 2.30039916,11.9042702 2.30039916,11.7938133 L2.30039916,10.9944319 L2.31094347,10.9943409 L6.302,7.005 L2.3,3.00555975 L2.30039916,2.2 C2.30039916,2.08954305 2.38994222,2 2.50039917,2 L10.7003992,2 Z" id="形状结合"></path>
                        </g>
                    </g>
                </g>
            </g>
        </g>
    </g>
</svg>