<?xml version="1.0" encoding="UTF-8"?>
<svg width="24px" height="24px" viewBox="0 0 24 24" version="1.1" xmlns="http://www.w3.org/2000/svg" xmlns:xlink="http://www.w3.org/1999/xlink">
    <title>icon-有序列表@1x</title>
    <g id="markdown编辑器" stroke="none" stroke-width="1" fill="none" fill-rule="evenodd">
        <g id="mark-down编辑器" transform="translate(-816.000000, -493.000000)" fill="#333333" fill-rule="nonzero">
            <g id="方案二" transform="translate(274.000000, 485.000000)">
                <g id="icon" transform="translate(16.000000, 8.000000)">
                    <g id="icon-有序列表" transform="translate(526.000000, 0.000000)">
                        <g id="orderedlist-outlined" transform="translate(5.000000, 5.000000)">
                            <rect id="矩形" opacity="0" x="0" y="0" width="14" height="14"></rect>
                            <path d="M12.578125,10.390625 L4.59375,10.390625 C4.53359375,10.390625 4.484375,10.4398437 4.484375,10.5 L4.484375,11.265625 C4.484375,11.3257813 4.53359375,11.375 4.59375,11.375 L12.578125,11.375 C12.6382813,11.375 12.6875,11.3257813 12.6875,11.265625 L12.6875,10.5 C12.6875,10.4398437 12.6382813,10.390625 12.578125,10.390625 Z M12.578125,2.625 L4.59375,2.625 C4.53359375,2.625 4.484375,2.67421875 4.484375,2.734375 L4.484375,3.5 C4.484375,3.56015625 4.53359375,3.609375 4.59375,3.609375 L12.578125,3.609375 C12.6382813,3.609375 12.6875,3.56015625 12.6875,3.5 L12.6875,2.734375 C12.6875,2.67421875 12.6382813,2.625 12.578125,2.625 Z M12.578125,6.5078125 L4.59375,6.5078125 C4.53359375,6.5078125 4.484375,6.55703125 4.484375,6.6171875 L4.484375,7.3828125 C4.484375,7.44296875 4.53359375,7.4921875 4.59375,7.4921875 L12.578125,7.4921875 C12.6382813,7.4921875 12.6875,7.44296875 12.6875,7.3828125 L12.6875,6.6171875 C12.6875,6.55703125 12.6382813,6.5078125 12.578125,6.5078125 Z M2.953125,9.734375 L1.3671875,9.734375 C1.33710938,9.734375 1.3125,9.75898437 1.3125,9.7890625 L1.3125,10.2539062 C1.3125,10.2839844 1.33710938,10.3085938 1.3671875,10.3085938 L2.35703125,10.3085938 L2.35703125,10.5888672 L1.86894531,10.5888672 C1.83886719,10.5888672 1.81425781,10.6134766 1.81425781,10.6435547 L1.81425781,11.1083984 C1.81425781,11.1384766 1.83886719,11.1630859 1.86894531,11.1630859 L2.35703125,11.1630859 L2.35703125,11.4570312 L1.3671875,11.4570312 C1.33710938,11.4570312 1.3125,11.4816406 1.3125,11.5117188 L1.3125,11.9765625 C1.3125,12.0066406 1.33710938,12.03125 1.3671875,12.03125 L2.953125,12.03125 C2.98320312,12.03125 3.0078125,12.0066406 3.0078125,11.9765625 L3.0078125,9.7890625 C3.0078125,9.75898437 2.98320312,9.734375 2.953125,9.734375 Z M1.3671875,2.5703125 L1.88671875,2.5703125 L1.88671875,4.2109375 C1.88671875,4.24101562 1.91132813,4.265625 1.94140625,4.265625 L2.48828125,4.265625 C2.51835937,4.265625 2.54296875,4.24101562 2.54296875,4.2109375 L2.54296875,2.078125 C2.54296875,2.01796875 2.49375,1.96875 2.43359375,1.96875 L1.3671875,1.96875 C1.33710938,1.96875 1.3125,1.99335938 1.3125,2.0234375 L1.3125,2.515625 C1.3125,2.54570312 1.33710938,2.5703125 1.3671875,2.5703125 Z M2.953125,5.8515625 L1.3671875,5.8515625 C1.33710938,5.8515625 1.3125,5.87617188 1.3125,5.90625 L1.3125,6.3984375 C1.3125,6.42851563 1.33710938,6.453125 1.3671875,6.453125 L2.30234375,6.453125 L1.34121094,7.51542969 C1.3234375,7.5359375 1.3125,7.56191406 1.3125,7.58925781 L1.3125,8.09375 C1.3125,8.12382813 1.33710938,8.1484375 1.3671875,8.1484375 L2.953125,8.1484375 C2.98320312,8.1484375 3.0078125,8.12382813 3.0078125,8.09375 L3.0078125,7.6015625 C3.0078125,7.57148437 2.98320312,7.546875 2.953125,7.546875 L2.01796875,7.546875 L2.97910156,6.48457031 C2.996875,6.4640625 3.0078125,6.43808594 3.0078125,6.41074219 L3.0078125,5.90625 C3.0078125,5.87617188 2.98320312,5.8515625 2.953125,5.8515625 L2.953125,5.8515625 Z" id="形状"></path>
                        </g>
                    </g>
                </g>
            </g>
        </g>
    </g>
</svg>