<?xml version="1.0" encoding="UTF-8"?>
<svg width="24px" height="24px" viewBox="0 0 24 24" version="1.1" xmlns="http://www.w3.org/2000/svg" xmlns:xlink="http://www.w3.org/1999/xlink">
    <title>icon-恢复</title>
    <g id="markdown编辑器" stroke="none" stroke-width="1" fill="none" fill-rule="evenodd">
        <g id="mark-down编辑器" transform="translate(-628.000000, -200.000000)" fill="#333333" fill-rule="nonzero">
            <g id="方案一" transform="translate(160.000000, 192.000000)">
                <g id="icon" transform="translate(16.000000, 8.000000)">
                    <g id="icon-恢复" transform="translate(452.000000, 0.000000)">
                        <g id="redo" transform="translate(5.000000, 5.000000)">
                            <rect id="矩形" opacity="0" x="0" y="0" width="14" height="14"></rect>
                            <path d="M10.3660156,11.4720703 C11.6457031,10.4712891 12.46875,8.91269531 12.46875,7.16269531 C12.46875,4.14257812 10.0283203,1.69941406 7.00820313,1.69530735 C3.98398437,1.69121094 1.53125,4.13984375 1.53125,7.16269531 C1.53125,8.87441406 2.31738281,10.4015625 3.54921875,11.4037109 C3.59707031,11.4419922 3.66679688,11.4337891 3.70507812,11.3859375 L4.24375,10.6955078 C4.28066406,10.6490234 4.27246094,10.5820312 4.22734375,10.54375 C4.11660156,10.4535156 4.00996094,10.3564453 3.90742188,10.2539062 C3.50546875,9.85195312 3.18964844,9.384375 2.96953125,8.86347656 C2.73984375,8.32617187 2.625,7.75332031 2.625,7.16269531 C2.625,6.57207031 2.73984375,5.99921875 2.96816406,5.46054687 C3.18828125,4.93964844 3.50410156,4.47207031 3.90605469,4.07011719 C4.30800781,3.66816406 4.77558594,3.35234375 5.29648437,3.13222656 C5.83652344,2.90390625 6.409375,2.7890625 7,2.7890625 C7.590625,2.7890625 8.16347656,2.90390625 8.70214844,3.13222656 C9.22304688,3.35234375 9.690625,3.66816406 10.0925781,4.07011719 C10.4945312,4.47207031 10.8103516,4.93964844 11.0304688,5.46054687 C11.2587891,5.99921875 11.3736328,6.57207031 11.3736328,7.16269531 C11.3736328,7.75332031 11.2587891,8.32617187 11.0304688,8.86484375 C10.8103516,9.38574219 10.4945312,9.85332031 10.0925781,10.2552734 C9.96542969,10.3824219 9.83144531,10.5013672 9.69199219,10.6107422 L9.13554687,9.8984375 C9.07949219,9.82597656 8.96464844,9.85058594 8.94277344,9.93945312 L8.40136719,12.1570312 C8.38496094,12.2253906 8.43691406,12.2923828 8.50664062,12.2923828 L10.7898438,12.3033203 C10.8814453,12.3033203 10.9333984,12.1980469 10.8759766,12.1269531 L10.3660156,11.4720703 Z" id="路径"></path>
                        </g>
                    </g>
                </g>
            </g>
        </g>
    </g>
</svg>