<?xml version="1.0" encoding="UTF-8"?>
<svg width="24px" height="24px" viewBox="0 0 24 24" version="1.1" xmlns="http://www.w3.org/2000/svg" xmlns:xlink="http://www.w3.org/1999/xlink">
    <title>icon-恢复</title>
    <g id="markdown编辑器" stroke="none" stroke-width="1" fill="none" fill-rule="evenodd">
        <g id="mark-down编辑器" transform="translate(-628.000000, -200.000000)" fill="#333333" fill-rule="nonzero">
            <g id="方案一" transform="translate(160.000000, 192.000000)">
                <g id="icon" transform="translate(16.000000, 8.000000)">
                    <g id="icon-恢复" transform="translate(452.000000, 0.000000)">
                        <g id="rollback-outlined" transform="translate(12.000000, 12.000000) scale(-1, 1) translate(-12.000000, -12.000000) translate(5.000000, 5.000000)">
                            <rect id="矩形" opacity="0" x="0" y="0" width="14" height="14"></rect>
                            <path d="M10.8417969,3.30859375 L5.00390625,3.30859375 L5.00390625,2.296875 C5.00390625,2.20527344 4.89863281,2.1546875 4.82753906,2.21074219 L2.88613281,3.74199219 C2.83007813,3.78574219 2.83007813,3.87050781 2.88613281,3.91425781 L4.82753906,5.44550781 C4.89863281,5.5015625 5.00390625,5.45097656 5.00390625,5.359375 L5.00390625,4.34765625 L10.6777344,4.34765625 L10.6777344,10.7734375 L2.39257812,10.7734375 C2.33242188,10.7734375 2.28320312,10.8226562 2.28320312,10.8828125 L2.28320312,11.703125 C2.28320312,11.7632812 2.33242188,11.8125 2.39257812,11.8125 L10.8417969,11.8125 C11.3244141,11.8125 11.7167969,11.4201172 11.7167969,10.9375 L11.7167969,4.18359375 C11.7167969,3.70097656 11.3244141,3.30859375 10.8417969,3.30859375 Z" id="路径"></path>
                        </g>
                    </g>
                </g>
            </g>
        </g>
    </g>
</svg>