<?xml version="1.0" encoding="UTF-8"?>
<svg width="24px" height="24px" viewBox="0 0 24 24" version="1.1" xmlns="http://www.w3.org/2000/svg" xmlns:xlink="http://www.w3.org/1999/xlink">
    <title>icon-加粗</title>
    <g id="markdown编辑器" stroke="none" stroke-width="1" fill="none" fill-rule="evenodd">
        <g id="mark-down编辑器" transform="translate(-208.000000, -200.000000)" fill="#333333" fill-rule="nonzero">
            <g id="方案一" transform="translate(160.000000, 192.000000)">
                <g id="icon" transform="translate(16.000000, 8.000000)">
                    <g id="icon-加粗" transform="translate(32.000000, 0.000000)">
                        <g id="bold" transform="translate(5.000000, 5.000000)">
                            <rect id="矩形" opacity="0" x="0" y="0" width="14" height="14"></rect>
                            <path d="M9.50067935,6.55281929 C9.95720109,6.07727582 10.2370924,5.43461277 10.2370924,4.72809103 L10.2370924,4.58950408 C10.2370924,3.12754755 9.04008152,1.94140625 7.56453804,1.94140625 L3.54415761,1.94140625 C3.33899457,1.94140625 3.171875,2.10852582 3.171875,2.31368886 L3.171875,11.540591 C3.171875,11.7620584 3.35122283,11.9414062 3.57269022,11.9414062 L7.90285326,11.9414062 C9.49252717,11.9414062 10.7805707,10.6615149 10.7805707,9.0813519 L10.7805707,8.93189538 C10.7805707,7.94004755 10.2724185,7.06640625 9.50067935,6.55281929 Z M4.47622283,3.24575408 L7.52921196,3.24575408 C8.30502717,3.24575408 8.93274457,3.84901495 8.93274457,4.59493886 L8.93274457,4.72401495 C8.93274457,5.46858016 8.30366848,6.07319973 7.52921196,6.07319973 L4.47622283,6.07319973 L4.47622283,3.24575408 Z M9.45720109,9.07999321 C9.45720109,9.93461277 8.75475543,10.6275476 7.88790761,10.6275476 L4.47622283,10.6275476 L4.47622283,7.38569973 L7.88790761,7.38569973 C8.75475543,7.38569973 9.45720109,8.07863451 9.45720109,8.93325408 L9.45720109,9.07999321 Z" id="形状"></path>
                        </g>
                    </g>
                </g>
            </g>
        </g>
    </g>
</svg>