<?xml version="1.0" encoding="UTF-8"?>
<svg width="24px" height="24px" viewBox="0 0 24 24" version="1.1" xmlns="http://www.w3.org/2000/svg" xmlns:xlink="http://www.w3.org/1999/xlink">
    <title>icon-表格@1x</title>
    <g id="markdown编辑器" stroke="none" stroke-width="1" fill="none" fill-rule="evenodd">
        <g id="mark-down编辑器" transform="translate(-784.000000, -493.000000)" fill="#333333" fill-rule="nonzero">
            <g id="方案二" transform="translate(274.000000, 485.000000)">
                <g id="icon" transform="translate(16.000000, 8.000000)">
                    <g id="icon-表格" transform="translate(494.000000, 0.000000)">
                        <g id="insertrowabove-outlined" transform="translate(5.000000, 5.000000)">
                            <rect id="矩形" opacity="0" x="0" y="0" width="14" height="14"></rect>
                            <path d="M12.0134766,4.59375 L1.98652344,4.59375 C1.73496094,4.59375 1.53125,4.78925781 1.53125,5.03125 L1.53125,11.375 C1.53125,11.6169922 1.73496094,11.8125 1.98652344,11.8125 L12.0121094,11.8125 C12.2636719,11.8125 12.4673897,11.6169922 12.4673897,11.375 L12.4673897,5.03125 C12.46875,4.78925781 12.2650391,4.59375 12.0134766,4.59375 L12.0134766,4.59375 Z M4.921875,10.828125 L2.515625,10.828125 L2.515625,8.640625 L4.921875,8.640625 L4.921875,10.828125 Z M4.921875,7.765625 L2.515625,7.765625 L2.515625,5.578125 L4.921875,5.578125 L4.921875,7.765625 Z M8.203125,10.828125 L5.796875,10.828125 L5.796875,8.640625 L8.203125,8.640625 L8.203125,10.828125 Z M8.203125,7.765625 L5.796875,7.765625 L5.796875,5.578125 L8.203125,5.578125 L8.203125,7.765625 Z M11.484375,10.828125 L9.078125,10.828125 L9.078125,8.640625 L11.484375,8.640625 L11.484375,10.828125 Z M11.484375,7.765625 L9.078125,7.765625 L9.078125,5.578125 L11.484375,5.578125 L11.484375,7.765625 Z M12.359375,2.1875 L1.640625,2.1875 C1.58046875,2.1875 1.53125,2.23671875 1.53125,2.296875 L1.53125,3.390625 C1.53125,3.45078125 1.58046875,3.5 1.640625,3.5 L12.359375,3.5 C12.4195312,3.5 12.46875,3.45078125 12.46875,3.390625 L12.46875,2.296875 C12.46875,2.23671875 12.4195312,2.1875 12.359375,2.1875 Z" id="形状"></path>
                        </g>
                    </g>
                </g>
            </g>
        </g>
    </g>
</svg>