<?xml version="1.0" encoding="UTF-8"?>
<svg width="24px" height="24px" viewBox="0 0 24 24" version="1.1" xmlns="http://www.w3.org/2000/svg" xmlns:xlink="http://www.w3.org/1999/xlink">
    <title>icon-HTML@1x</title>
    <g id="markdown编辑器" stroke="none" stroke-width="1" fill="none" fill-rule="evenodd">
        <g id="mark-down编辑器" transform="translate(-993.000000, -90.000000)" fill="#333333" fill-rule="nonzero">
            <g id="方案一" transform="translate(274.000000, 82.000000)">
                <g id="icon" transform="translate(16.000000, 8.000000)">
                    <g id="icon-HTML" transform="translate(703.000000, 0.000000)">
                        <g id="file-markdown-outlined" transform="translate(5.000000, 5.000000)">
                            <rect id="矩形" opacity="0" x="0" y="0" width="14" height="14"></rect>
                            <path d="M11.6839844,3.94570313 L8.74179687,1.00351563 C8.65976562,0.921484375 8.54902344,0.875 8.4328125,0.875 L2.625,0.875 C2.38300781,0.875 2.1875,1.07050781 2.1875,1.3125 L2.1875,12.6875 C2.1875,12.9294922 2.38300781,13.125 2.625,13.125 L11.375,13.125 C11.6169922,13.125 11.8125,12.9294922 11.8125,12.6875 L11.8125,4.25605469 C11.8125,4.13984375 11.7660156,4.02773437 11.6839844,3.94570313 Z M10.8035156,4.45703125 L8.23046875,4.45703125 L8.23046875,1.88398438 L10.8035156,4.45703125 Z M7.30078125,1.859375 L7.30078125,4.8125 C7.30078125,5.1296875 7.5578125,5.38671875 7.875,5.38671875 L10.828125,5.38671875 L10.828125,12.140625 L3.171875,12.140625 L3.171875,1.859375 L7.30078125,1.859375 Z M5.99,6.5 L5.69,6.5 C5.57954305,6.5 5.49,6.58954305 5.49,6.7 L5.49,10.3 C5.49,10.4104569 5.57954305,10.5 5.69,10.5 L5.99,10.5 C6.10045695,10.5 6.19,10.4104569 6.19,10.3 L6.1895,8.848 L6.2,8.85 L7.8,8.85 C7.83643545,8.85 7.8705953,8.84025697 7.90001632,8.82323412 L7.9,10.3 C7.9,10.4104569 7.98954305,10.5 8.1,10.5 L8.4,10.5 C8.51045695,10.5 8.6,10.4104569 8.6,10.3 L8.6,6.7 C8.6,6.58954305 8.51045695,6.5 8.4,6.5 L8.1,6.5 C7.98954305,6.5 7.9,6.58954305 7.9,6.7 L7.90001632,8.17676588 C7.8705953,8.15974303 7.83643545,8.15 7.8,8.15 L6.2,8.15 C6.19652651,8.15 6.19307371,8.15008855 6.18964371,8.15026351 L6.19,6.7 C6.19,6.58954305 6.10045695,6.5 5.99,6.5 Z" id="形状"></path>
                        </g>
                    </g>
                </g>
            </g>
        </g>
    </g>
</svg>