<?xml version="1.0" encoding="UTF-8"?>
<svg width="24px" height="24px" viewBox="0 0 24 24" version="1.1" xmlns="http://www.w3.org/2000/svg" xmlns:xlink="http://www.w3.org/1999/xlink">
    <title>icon-Markdown@1x</title>
    <g id="markdown编辑器" stroke="none" stroke-width="1" fill="none" fill-rule="evenodd">
        <g id="mark-down编辑器" transform="translate(-961.000000, -90.000000)" fill="#333333" fill-rule="nonzero">
            <g id="方案一" transform="translate(274.000000, 82.000000)">
                <g id="icon" transform="translate(16.000000, 8.000000)">
                    <g id="icon-Markdown" transform="translate(671.000000, 0.000000)">
                        <g id="file-markdown-outlined" transform="translate(5.000000, 5.000000)">
                            <rect id="矩形" opacity="0" x="0" y="0" width="14" height="14"></rect>
                            <path d="M11.6839844,3.94570313 L8.74179687,1.00351563 C8.65976562,0.921484375 8.54902344,0.875 8.4328125,0.875 L2.625,0.875 C2.38300781,0.875 2.1875,1.07050781 2.1875,1.3125 L2.1875,12.6875 C2.1875,12.9294922 2.38300781,13.125 2.625,13.125 L11.375,13.125 C11.6169922,13.125 11.8125,12.9294922 11.8125,12.6875 L11.8125,4.25605469 C11.8125,4.13984375 11.7660156,4.02773437 11.6839844,3.94570313 Z M10.8035156,4.45703125 L8.23046875,4.45703125 L8.23046875,1.88398438 L10.8035156,4.45703125 Z M10.828125,12.140625 L3.171875,12.140625 L3.171875,1.859375 L7.30078125,1.859375 L7.30078125,4.8125 C7.30078125,5.1296875 7.5578125,5.38671875 7.875,5.38671875 L10.828125,5.38671875 L10.828125,12.140625 Z M5.86523438,6.57890625 C5.83925781,6.51875 5.78046875,6.48046875 5.71484375,6.48046875 L5.23632812,6.48046875 C5.14609375,6.48046875 5.07226562,6.55429687 5.07226562,6.64453125 L5.07226562,10.3632812 C5.07226562,10.4535156 5.14609375,10.5273438 5.23632812,10.5273438 L5.60683594,10.5273438 C5.69707031,10.5273438 5.77089844,10.4535156 5.77089844,10.3632812 L5.77089844,7.95839844 L6.68417969,10.0119141 C6.71015625,10.0707031 6.76894531,10.1089844 6.83457031,10.1089844 L7.1640625,10.1089844 C7.22832031,10.1089844 7.28710938,10.0707031 7.31445312,10.0119141 L8.22773437,7.95292969 L8.22773437,10.3632812 C8.22773437,10.4535156 8.3015625,10.5273438 8.39179687,10.5273438 L8.76367188,10.5273438 C8.85390625,10.5273438 8.92773438,10.4535156 8.92773438,10.3632812 L8.92773438,6.64453125 C8.92773438,6.55429687 8.85390625,6.48046875 8.76367188,6.48046875 L8.28925781,6.48046875 C8.22363281,6.48046875 8.16484375,6.51875 8.13886719,6.57890625 L7.00273437,9.19023438 L5.86523437,6.57890625 L5.86523438,6.57890625 Z" id="形状"></path>
                        </g>
                    </g>
                </g>
            </g>
        </g>
    </g>
</svg>