<?xml version="1.0" encoding="UTF-8"?>
<svg width="24px" height="24px" viewBox="0 0 24 24" version="1.1" xmlns="http://www.w3.org/2000/svg" xmlns:xlink="http://www.w3.org/1999/xlink">
    <title>icon-撤销</title>
    <g id="markdown编辑器" stroke="none" stroke-width="1" fill="none" fill-rule="evenodd">
        <g id="mark-down编辑器" transform="translate(-596.000000, -200.000000)" fill="#333333" fill-rule="nonzero">
            <g id="方案一" transform="translate(160.000000, 192.000000)">
                <g id="icon" transform="translate(16.000000, 8.000000)">
                    <g id="icon-撤销" transform="translate(420.000000, 0.000000)">
                        <g id="undo" transform="translate(5.000000, 5.000000)">
                            <rect id="矩形" opacity="0" x="0" y="0" width="14" height="14"></rect>
                            <path d="M6.99179687,1.69530735 C3.97167969,1.69941406 1.53125,4.14257812 1.53125,7.16269531 C1.53125,8.91269531 2.35429687,10.4712891 3.63398438,11.4720703 L3.12128906,12.1283203 C3.06523438,12.2007812 3.1171875,12.3060547 3.20742188,12.3047007 L5.490625,12.29375 C5.56171875,12.29375 5.61367188,12.2267578 5.59589844,12.1583984 L5.05585938,9.93945312 C5.03398437,9.85058594 4.91914063,9.82597656 4.86308594,9.8984375 L4.30664062,10.6107422 C4.1671875,10.5013672 4.03320312,10.3824219 3.90605469,10.2552734 C3.50410156,9.85332031 3.18828125,9.38574219 2.96816406,8.86484375 C2.73984375,8.32617187 2.625,7.75332031 2.625,7.16269531 C2.625,6.57207031 2.73984375,5.99921875 2.96816406,5.46054687 C3.18828125,4.93964844 3.50410156,4.47207031 3.90605469,4.07011719 C4.30800781,3.66816406 4.77558594,3.35234375 5.29648437,3.13222656 C5.83652344,2.90390625 6.409375,2.7890625 7,2.7890625 C7.590625,2.7890625 8.16347656,2.90390625 8.70214844,3.13222656 C9.22304688,3.35234375 9.690625,3.66816406 10.0925781,4.07011719 C10.4945312,4.47207031 10.8103516,4.93964844 11.0304688,5.46054687 C11.2587891,5.99921875 11.3736328,6.57207031 11.3736328,7.16269531 C11.3736328,7.75332031 11.2587891,8.32617187 11.0304688,8.86484375 C10.8103516,9.38574219 10.4945312,9.85332031 10.0925781,10.2552734 C9.99003906,10.3578125 9.88339844,10.4535156 9.77265625,10.5451172 C9.72617188,10.5833984 9.71933594,10.6503906 9.75625,10.696875 L10.2949219,11.3873047 C10.3332031,11.4351562 10.4029297,11.4433594 10.4507813,11.4050781 C11.6826172,10.4015625 12.46875,8.87441406 12.46875,7.16269531 C12.46875,4.13984375 10.0160156,1.69121094 6.99179687,1.69530735 Z" id="路径"></path>
                        </g>
                    </g>
                </g>
            </g>
        </g>
    </g>
</svg>