<?xml version="1.0" encoding="UTF-8"?>
<svg width="24px" height="24px" viewBox="0 0 24 24" version="1.1" xmlns="http://www.w3.org/2000/svg" xmlns:xlink="http://www.w3.org/1999/xlink">
    <title>icon-无序列表@1x</title>
    <g id="markdown编辑器" stroke="none" stroke-width="1" fill="none" fill-rule="evenodd">
        <g id="mark-down编辑器" transform="translate(-848.000000, -493.000000)" fill="#333333" fill-rule="nonzero">
            <g id="方案二" transform="translate(274.000000, 485.000000)">
                <g id="icon" transform="translate(16.000000, 8.000000)">
                    <g id="icon-无序列表" transform="translate(558.000000, 0.000000)">
                        <g id="unorderedlist-outlined" transform="translate(5.000000, 5.000000)">
                            <rect id="矩形" opacity="0" x="0" y="0" width="14" height="14"></rect>
                            <path d="M12.46875,2.625 L4.484375,2.625 C4.42421875,2.625 4.375,2.67421875 4.375,2.734375 L4.375,3.5 C4.375,3.56015625 4.42421875,3.609375 4.484375,3.609375 L12.46875,3.609375 C12.5289062,3.609375 12.578125,3.56015625 12.578125,3.5 L12.578125,2.734375 C12.578125,2.67421875 12.5289062,2.625 12.46875,2.625 Z M12.46875,6.5078125 L4.484375,6.5078125 C4.42421875,6.5078125 4.375,6.55703125 4.375,6.6171875 L4.375,7.3828125 C4.375,7.44296875 4.42421875,7.4921875 4.484375,7.4921875 L12.46875,7.4921875 C12.5289062,7.4921875 12.578125,7.44296875 12.578125,7.3828125 L12.578125,6.6171875 C12.578125,6.55703125 12.5289062,6.5078125 12.46875,6.5078125 Z M12.46875,10.390625 L4.484375,10.390625 C4.42421875,10.390625 4.375,10.4398437 4.375,10.5 L4.375,11.265625 C4.375,11.3257813 4.42421875,11.375 4.484375,11.375 L12.46875,11.375 C12.5289062,11.375 12.578125,11.3257813 12.578125,11.265625 L12.578125,10.5 C12.578125,10.4398437 12.5289062,10.390625 12.46875,10.390625 Z M1.421875,3.1171875 C1.421875,3.39071897 1.5678023,3.64347247 1.8046875,3.78023821 C2.0415727,3.91700395 2.3334273,3.91700395 2.5703125,3.78023821 C2.8071977,3.64347247 2.953125,3.39071897 2.953125,3.1171875 C2.953125,2.84365603 2.8071977,2.59090253 2.5703125,2.45413679 C2.3334273,2.31737105 2.0415727,2.31737105 1.8046875,2.45413679 C1.5678023,2.59090253 1.421875,2.84365603 1.421875,3.1171875 L1.421875,3.1171875 Z M1.421875,7 C1.421875,7.27353147 1.5678023,7.52628497 1.8046875,7.66305071 C2.0415727,7.79981645 2.3334273,7.79981645 2.5703125,7.66305071 C2.8071977,7.52628497 2.953125,7.27353147 2.953125,7 C2.953125,6.72646853 2.8071977,6.47371503 2.5703125,6.33694929 C2.3334273,6.20018355 2.0415727,6.20018355 1.8046875,6.33694929 C1.5678023,6.47371503 1.421875,6.72646853 1.421875,7 L1.421875,7 Z M1.421875,10.8828125 C1.421875,11.156344 1.5678023,11.4090975 1.8046875,11.5458632 C2.0415727,11.6826289 2.3334273,11.6826289 2.5703125,11.5458632 C2.8071977,11.4090975 2.953125,11.156344 2.953125,10.8828125 C2.953125,10.609281 2.8071977,10.3565275 2.5703125,10.2197618 C2.3334273,10.0829961 2.0415727,10.0829961 1.8046875,10.2197618 C1.5678023,10.3565275 1.421875,10.609281 1.421875,10.8828125 L1.421875,10.8828125 Z" id="形状"></path>
                        </g>
                    </g>
                </g>
            </g>
        </g>
    </g>
</svg>